<?xml version="1.0" standalone="no"?>
<!DOCTYPE svg PUBLIC "-//W3C//DTD SVG 20010904//EN"
 "http://www.w3.org/TR/2001/REC-SVG-20010904/DTD/svg10.dtd">
<svg version="1.0" xmlns="http://www.w3.org/2000/svg"
 width="1048.000000pt" height="1048.000000pt" viewBox="0 0 1048.000000 1048.000000"
 preserveAspectRatio="xMidYMid meet">
<metadata>
Created by potrace 1.14, written by Peter Selinger 2001-2017
</metadata>
<g transform="translate(0.000000,1048.000000) scale(0.100000,-0.100000)"
fill="#000000" stroke="none">
<path d="M5488 10475 c-2 -1 -30 -6 -63 -10 -53 -6 -98 -13 -172 -29 -175 -37
-434 -137 -568 -219 -51 -31 -192 -123 -205 -133 -262 -206 -442 -420 -573
-679 -59 -119 -77 -160 -77 -178 0 -9 -4 -18 -9 -22 -5 -3 -13 -20 -16 -38 -4
-17 -16 -57 -26 -88 -10 -32 -20 -71 -21 -88 -1 -17 -5 -31 -8 -31 -3 0 -6 -8
-6 -17 -1 -10 -5 -49 -9 -88 -14 -115 -8 -344 9 -396 3 -8 7 -30 9 -49 7 -58
74 -245 122 -340 85 -171 224 -364 340 -473 83 -79 102 -95 175 -148 61 -45
213 -139 225 -139 1 0 24 -10 51 -22 27 -12 51 -22 54 -23 3 0 10 -3 15 -6 20
-13 204 -69 242 -74 21 -3 44 -8 52 -11 7 -2 34 -7 59 -10 25 -3 49 -7 52 -9
10 -6 207 -18 289 -17 67 0 178 8 241 17 57 7 106 16 120 21 8 3 26 8 40 10
14 3 59 16 100 31 329 112 567 327 813 733 77 127 174 331 192 405 1 6 5 17 8
25 12 28 47 165 53 200 2 19 7 44 9 56 19 87 24 289 12 427 -15 164 -76 378
-164 577 -47 105 -137 262 -154 268 -5 2 -9 8 -9 14 0 36 -210 247 -323 324
-129 89 -328 176 -457 199 -14 2 -50 10 -80 16 -49 10 -334 22 -342 14z"/>
<path d="M2350 8730 c-22 -22 -44 -57 -49 -78 -33 -120 -33 -386 0 -542 27
-133 92 -344 139 -455 56 -130 134 -316 143 -340 7 -16 17 -33 22 -37 6 -4 7
-8 3 -8 -3 0 9 -32 28 -70 19 -39 34 -74 34 -78 0 -5 6 -14 13 -20 6 -7 12
-16 12 -20 1 -23 191 -347 267 -455 26 -37 48 -71 48 -76 0 -5 4 -11 8 -13 5
-1 28 -30 53 -63 45 -61 67 -89 84 -109 6 -6 34 -40 64 -76 62 -74 377 -390
389 -390 4 0 23 -15 42 -33 19 -18 64 -57 100 -87 35 -30 76 -65 90 -77 14
-12 36 -31 50 -42 14 -11 39 -33 55 -49 17 -15 53 -48 80 -72 161 -141 527
-494 595 -575 57 -67 131 -167 162 -217 17 -29 35 -55 38 -58 10 -8 103 -199
127 -260 41 -108 76 -223 87 -285 18 -109 25 -158 31 -215 6 -65 6 -270 0
-385 -5 -110 -16 -319 -21 -430 -13 -287 -9 -280 -150 -254 -32 6 -73 12 -90
13 -16 1 -34 5 -40 7 -5 3 -25 6 -44 8 -19 1 -53 7 -75 12 -22 5 -52 11 -66
14 -61 9 -213 52 -234 66 -5 3 -23 9 -40 13 -32 8 -241 109 -315 152 -58 34
-246 160 -260 174 -3 3 -30 24 -60 47 -30 23 -64 50 -75 60 -11 10 -30 25 -41
34 -12 8 -55 44 -95 80 -41 37 -89 79 -108 95 -38 32 -201 194 -201 200 0 2
-11 16 -25 31 -61 67 -90 104 -160 208 -121 180 -173 297 -268 601 -37 119
-131 249 -207 289 -96 50 -229 4 -260 -90 -14 -42 -11 -124 6 -185 7 -25 15
-58 18 -75 9 -49 23 -107 41 -165 9 -30 17 -63 17 -72 -1 -10 3 -20 9 -23 5
-4 9 -15 9 -25 0 -10 5 -31 12 -47 6 -15 12 -30 13 -33 17 -57 29 -91 60 -170
21 -52 47 -113 58 -135 12 -22 22 -42 22 -45 1 -6 49 -98 75 -145 30 -54 74
-120 83 -123 4 -2 7 -8 7 -14 0 -16 108 -155 199 -258 160 -179 273 -280 551
-493 59 -45 290 -193 304 -194 5 -1 12 -5 15 -10 3 -5 49 -34 101 -64 52 -30
104 -59 115 -66 11 -7 29 -17 40 -22 72 -37 484 -287 512 -311 7 -5 15 -10 18
-10 7 0 125 -79 141 -94 6 -6 26 -22 44 -36 34 -25 128 -120 175 -175 88 -103
173 -270 220 -431 56 -192 75 -341 90 -694 13 -307 29 -496 49 -585 8 -35 38
-85 61 -103 63 -50 225 -67 285 -30 53 32 77 105 85 263 4 61 8 142 11 180 5
104 12 268 19 470 7 221 17 360 25 360 1 0 3 15 6 34 2 19 11 59 20 90 8 31
16 61 17 66 26 105 135 287 230 386 30 31 143 128 253 215 109 87 201 161 204
164 3 3 25 21 50 40 25 19 52 40 60 47 8 7 58 46 110 88 52 42 104 84 115 93
11 10 49 40 85 67 36 28 72 55 80 62 8 7 62 50 120 95 111 88 126 100 199 163
351 303 622 647 800 1018 28 58 51 108 51 110 0 3 8 22 17 43 9 22 17 44 19
49 1 6 11 46 24 89 12 43 24 88 26 100 2 12 6 32 9 46 4 14 7 34 9 45 2 11 6
34 9 50 25 119 26 168 3 215 -51 103 -179 116 -252 26 -50 -61 -54 -66 -54
-70 0 -1 -34 -53 -75 -115 -41 -62 -75 -117 -75 -122 0 -5 -4 -9 -9 -9 -5 0
-11 -8 -15 -17 -12 -38 -227 -350 -304 -444 -223 -272 -426 -459 -679 -628
-208 -139 -388 -229 -618 -311 -49 -17 -97 -33 -105 -35 -8 -2 -69 -18 -135
-35 -158 -40 -179 -43 -205 -22 -22 18 -26 33 -35 152 -4 41 -8 86 -10 100 -3
14 -7 56 -11 95 -3 38 -7 88 -9 110 -24 248 -24 523 0 770 16 158 72 360 142
504 101 211 311 458 548 646 28 22 52 42 55 45 3 3 34 29 70 59 168 138 517
476 645 625 33 38 66 75 73 82 34 35 208 253 242 304 8 12 20 28 26 34 22 23
164 227 164 236 0 4 3 10 8 12 9 4 124 185 188 298 27 47 51 87 54 90 3 3 32
59 65 125 33 66 65 123 70 127 6 4 7 8 3 8 -4 0 6 26 21 58 28 56 89 205 96
232 0 3 13 41 27 85 27 79 57 185 62 215 1 8 6 31 11 50 5 19 9 42 10 50 1 8
4 31 8 50 16 83 19 111 22 216 9 220 -63 364 -180 364 -40 0 -96 -27 -125 -60
-48 -55 -70 -85 -70 -94 0 -5 -6 -17 -14 -25 -7 -9 -39 -85 -70 -169 -116
-316 -259 -617 -422 -885 -30 -49 -54 -90 -54 -92 0 -11 -237 -359 -320 -470
-139 -185 -295 -351 -417 -442 -15 -12 -49 -37 -76 -57 -26 -20 -50 -36 -53
-36 -3 0 -28 -15 -57 -33 -44 -28 -161 -89 -177 -93 -3 0 -18 -6 -34 -13 -79
-33 -250 -81 -341 -96 -16 -3 -41 -7 -55 -10 -23 -4 -98 -13 -185 -21 -54 -4
-339 -4 -395 1 -108 9 -187 16 -210 19 -14 2 -50 7 -80 11 -48 6 -243 46 -292
60 -10 3 -26 7 -37 9 -37 8 -229 75 -277 96 -69 30 -218 103 -224 110 -3 3
-18 12 -34 20 -56 29 -66 35 -66 42 0 5 -5 8 -11 8 -9 0 -97 55 -109 69 -3 3
-25 22 -50 41 -25 19 -51 39 -58 45 -64 50 -232 221 -304 310 -48 61 -93 115
-98 122 -6 7 -10 15 -10 17 0 3 -18 29 -40 58 -22 29 -40 59 -40 66 0 6 -3 12
-8 12 -4 0 -13 12 -19 28 -7 15 -23 43 -35 62 -12 19 -23 37 -23 40 -1 3 -29
62 -63 133 -34 70 -62 130 -62 133 0 3 -6 20 -14 37 -8 18 -54 128 -101 246
-193 481 -354 820 -413 872 -72 63 -126 66 -182 9z"/>
</g>
</svg>
